<svg width="96" height="97" viewBox="0 0 96 97" fill="none" xmlns="http://www.w3.org/2000/svg">
<g clip-path="url(#clip0_127_3110)">
<path opacity="0.8" fill-rule="evenodd" clip-rule="evenodd" d="M76.7998 87.809V18.8905C76.7998 13.8125 72.643 9.69971 67.5214 9.69971H16.4782C11.3566 9.69971 7.1998 13.8125 7.1998 18.8905V87.809C7.1998 92.8869 11.3566 96.9997 16.4782 96.9997H67.5214C72.643 96.9997 76.7998 92.8869 76.7998 87.809Z" fill="#FEBE0C"/>
<path fill-rule="evenodd" clip-rule="evenodd" d="M84 14.5498V82.4498C84 85.6656 82.7357 88.7496 80.4853 91.0235C78.2348 93.2974 75.1826 94.5748 72 94.5748H24C20.8174 94.5748 17.7652 93.2974 15.5147 91.0235C13.2643 88.7496 12 85.6656 12 82.4498V14.5498C12 12.9575 12.3104 11.3808 12.9134 9.90977C13.5165 8.43869 14.4004 7.10205 15.5147 5.97613C16.629 4.85022 17.9519 3.9571 19.4078 3.34777C20.8637 2.73843 22.4241 2.4248 24 2.4248H72C75.1826 2.4248 78.2348 3.70226 80.4853 5.97613C82.7357 8.25001 84 11.3341 84 14.5498V14.5498ZM72 89.7248C73.9096 89.7248 75.7409 88.9583 77.0912 87.594C78.4414 86.2297 79.2 84.3793 79.2 82.4498V14.5498C79.2 12.6204 78.4414 10.7699 77.0912 9.4056C75.7409 8.04128 73.9096 7.2748 72 7.2748H24C22.0904 7.2748 20.2591 8.04128 18.9088 9.4056C17.5586 10.7699 16.8 12.6204 16.8 14.5498V82.4498C16.8 84.3793 17.5586 86.2297 18.9088 87.594C20.2591 88.9583 22.0904 89.7248 24 89.7248H72Z" fill="black"/>
<path d="M26.5 36.2998H69.5V17.0498H26.5V36.2998Z" fill="white" stroke="black" stroke-width="5"/>
<path d="M72 58.2V50.925C72 50.2818 71.7471 49.665 71.2971 49.2103C70.847 48.7555 70.2365 48.5 69.6 48.5H62.4C61.7635 48.5 61.153 48.7555 60.7029 49.2103C60.2529 49.665 60 50.2818 60 50.925V58.2C60 58.8431 60.2529 59.46 60.7029 59.9147C61.153 60.3695 61.7635 60.625 62.4 60.625H69.6C70.2365 60.625 70.847 60.3695 71.2971 59.9147C71.7471 59.46 72 58.8431 72 58.2Z" fill="black"/>
<path d="M55.2002 58.2V50.925C55.2002 50.2818 54.9473 49.665 54.4973 49.2103C54.0472 48.7555 53.4367 48.5 52.8002 48.5H45.6002C44.9637 48.5 44.3532 48.7555 43.9031 49.2103C43.4531 49.665 43.2002 50.2818 43.2002 50.925V58.2C43.2002 58.8431 43.4531 59.46 43.9031 59.9147C44.3532 60.3695 44.9637 60.625 45.6002 60.625H52.8002C53.4367 60.625 54.0472 60.3695 54.4973 59.9147C54.9473 59.46 55.2002 58.8431 55.2002 58.2Z" fill="black"/>
<path d="M38.3531 58.2V50.925C38.3531 50.2818 38.1002 49.665 37.6501 49.2103C37.2001 48.7555 36.5896 48.5 35.9531 48.5H28.7531C28.1166 48.5 27.5061 48.7555 27.056 49.2103C26.6059 49.665 26.3531 50.2818 26.3531 50.925V58.2C26.3531 58.8431 26.6059 59.46 27.056 59.9147C27.5061 60.3695 28.1166 60.625 28.7531 60.625H35.9531C36.5896 60.625 37.2001 60.3695 37.6501 59.9147C38.1002 59.46 38.3531 58.8431 38.3531 58.2Z" fill="black"/>
<path d="M72 77.5999V70.3249C72 69.6818 71.7471 69.0649 71.2971 68.6102C70.847 68.1554 70.2365 67.8999 69.6 67.8999H62.4C61.7635 67.8999 61.153 68.1554 60.7029 68.6102C60.2529 69.0649 60 69.6818 60 70.3249V77.5999C60 78.2431 60.2529 78.8599 60.7029 79.3146C61.153 79.7694 61.7635 80.0249 62.4 80.0249H69.6C70.2365 80.0249 70.847 79.7694 71.2971 79.3146C71.7471 78.8599 72 78.2431 72 77.5999Z" fill="black"/>
<path d="M55.2002 77.5999V70.3249C55.2002 69.6818 54.9473 69.0649 54.4973 68.6102C54.0472 68.1554 53.4367 67.8999 52.8002 67.8999H45.6002C44.9637 67.8999 44.3532 68.1554 43.9031 68.6102C43.4531 69.0649 43.2002 69.6818 43.2002 70.3249V77.5999C43.2002 78.2431 43.4531 78.8599 43.9031 79.3146C44.3532 79.7694 44.9637 80.0249 45.6002 80.0249H52.8002C53.4367 80.0249 54.0472 79.7694 54.4973 79.3146C54.9473 78.8599 55.2002 78.2431 55.2002 77.5999Z" fill="black"/>
<path d="M38.3531 77.5999V70.3249C38.3531 69.6818 38.1002 69.0649 37.6501 68.6102C37.2001 68.1554 36.5896 67.8999 35.9531 67.8999H28.7531C28.1166 67.8999 27.5061 68.1554 27.056 68.6102C26.6059 69.0649 26.3531 69.6818 26.3531 70.3249V77.5999C26.3531 78.2431 26.6059 78.8599 27.056 79.3146C27.5061 79.7694 28.1166 80.0249 28.7531 80.0249H35.9531C36.5896 80.0249 37.2001 79.7694 37.6501 79.3146C38.1002 78.8599 38.3531 78.2431 38.3531 77.5999Z" fill="black"/>
</g>
<defs>
<clipPath id="clip0_127_3110">
<rect width="96" height="97" fill="white" transform="matrix(-1 0 0 1 96 0)"/>
</clipPath>
</defs>
</svg>
